<svg width="1550" height="348" viewBox="0 0 1550 348" fill="none" xmlns="http://www.w3.org/2000/svg">
<g clip-path="url(#clip0_0_1)">
<path d="M174 313C250.768 313 313 250.768 313 174C313 97.2324 250.768 35 174 35C97.2324 35 35 97.2324 35 174C35 250.768 97.2324 313 174 313Z" stroke="#E4C590" stroke-width="30"/>
<path d="M174.5 291C239.393 291 292 238.393 292 173.5C292 108.607 239.393 56 174.5 56C109.607 56 57 108.607 57 173.5C57 238.393 109.607 291 174.5 291Z" fill="#E4C590" stroke="black" stroke-width="20"/>
<path d="M135 126C146.598 126 156 116.598 156 105C156 93.402 146.598 84 135 84C123.402 84 114 93.402 114 105C114 116.598 123.402 126 135 126Z" fill="black"/>
<path d="M232 252C243.598 252 253 242.598 253 231C253 219.402 243.598 210 232 210C220.402 210 211 219.402 211 231C211 242.598 220.402 252 232 252Z" fill="black"/>
<path d="M160.232 190.056C169.047 189.428 175.683 181.774 175.056 172.96C174.428 164.145 166.774 157.509 157.96 158.136C149.145 158.764 142.509 166.418 143.136 175.232C143.764 184.047 151.418 190.683 160.232 190.056Z" fill="black"/>
<path d="M263 173C271.837 173 279 165.837 279 157C279 148.163 271.837 141 263 141C254.163 141 247 148.163 247 157C247 165.837 254.163 173 263 173Z" fill="black"/>
<path d="M91 179C99.8366 179 107 171.837 107 163C107 154.163 99.8366 147 91 147C82.1634 147 75 154.163 75 163C75 171.837 82.1634 179 91 179Z" fill="black"/>
<path d="M107 247C118.598 247 128 237.598 128 226C128 214.402 118.598 205 107 205C95.402 205 86 214.402 86 226C86 237.598 95.402 247 107 247Z" fill="black"/>
<path d="M181 103C189.837 103 197 95.8366 197 87C197 78.1634 189.837 71 181 71C172.163 71 165 78.1634 165 87C165 95.8366 172.163 103 181 103Z" fill="black"/>
<path d="M165 268C176.598 268 186 258.598 186 247C186 235.402 176.598 226 165 226C153.402 226 144 235.402 144 247C144 258.598 153.402 268 165 268Z" fill="black"/>
<path d="M209 173C220.598 173 230 163.598 230 152C230 140.402 220.598 131 209 131C197.402 131 188 140.402 188 152C188 163.598 197.402 173 209 173Z" fill="black"/>
<path d="M174 338C264.575 338 338 264.575 338 174C338 83.4253 264.575 10 174 10C83.4253 10 10 83.4253 10 174C10 264.575 83.4253 338 174 338Z" stroke="black" stroke-width="20"/>
<path d="M455 165L465 155V120C465 59.2487 415.751 10 355 10H259C198.249 10 149 59.2487 149 120V155L159 165H455Z" fill="#E4C590" stroke="black" stroke-width="20" stroke-linejoin="bevel"/>
<path d="M159 260H149V270V316C149 327.046 157.954 336 169 336H445C456.046 336 465 327.046 465 316V270V260H455H159Z" fill="#E4C590" stroke="black" stroke-width="20"/>
<path d="M450 187H164C155.716 187 149 193.716 149 202C149 210.284 155.716 217 164 217H450C458.284 217 465 210.284 465 202C465 193.716 458.284 187 450 187Z" fill="#E4C590" stroke="black" stroke-width="20"/>
<path d="M447.5 162H168.5C158.283 162 150 167.597 150 174.5C150 181.403 158.283 187 168.5 187H447.5C457.717 187 466 181.403 466 174.5C466 167.597 457.717 162 447.5 162Z" fill="#E4C590" stroke="black" stroke-width="20"/>
<path d="M445 217H169C157.954 217 149 223.441 149 231.386V243.614C149 251.559 157.954 258 169 258H445C456.046 258 465 251.559 465 243.614V231.386C465 223.441 456.046 217 445 217Z" fill="#E4C590" stroke="black" stroke-width="20"/>
<path d="M213.9 68.3722C213.253 68.4857 212.636 68.0532 212.523 67.4062C211.682 62.6135 214.885 58.0465 219.678 57.2056L219.914 57.1642C220.431 57.0735 220.923 57.419 221.014 57.9359L221.055 58.1715C221.896 62.9643 218.692 67.5313 213.9 68.3722Z" fill="black"/>
<path d="M289 102.07C289 101.479 289.479 101 290.07 101C294.45 101 298 104.55 298 108.93V110.145C298 110.617 297.617 111 297.145 111C292.647 111 289 107.353 289 102.855V102.07Z" fill="black"/>
<path d="M393 104.07C393 103.479 393.479 103 394.07 103C398.45 103 402 106.55 402 110.93V112.145C402 112.617 401.617 113 401.145 113C396.647 113 393 109.353 393 104.855V104.07Z" fill="black"/>
<path d="M338 58.9515C338 58.426 338.426 58 338.952 58C342.844 58 346 61.1557 346 65.0485V67.2398C346 67.6597 345.66 68 345.24 68C341.241 68 338 64.7586 338 60.7602V58.9515Z" fill="black"/>
<path d="M361 46.0705C361 45.4793 361.479 45 362.07 45C366.45 45 370 48.5502 370 52.9295V54.1448C370 54.6171 369.617 55 369.145 55C364.647 55 361 51.3535 361 46.8552V46.0705Z" fill="black"/>
<path d="M335 97.0705C335 96.4793 335.479 96 336.07 96C340.45 96 344 99.5502 344 103.93V105.145C344 105.617 343.617 106 343.145 106C338.647 106 335 102.353 335 97.8552V97.0705Z" fill="black"/>
<path d="M235 44.1894C235 43.5325 235.533 43 236.189 43C241.055 43 245 46.9446 245 51.8106V52.0498C245 52.5746 244.575 53 244.05 53H243.811C238.945 53 235 49.0554 235 44.1894Z" fill="black"/>
<path d="M244 102.07C244 101.479 244.479 101 245.07 101C249.45 101 253 104.55 253 108.93V110.145C253 110.617 252.617 111 252.145 111C247.647 111 244 107.353 244 102.855V102.07Z" fill="black"/>
<path d="M402 60.1894C402 59.5325 402.533 59 403.189 59C408.055 59 412 62.9446 412 67.8106V68.0498C412 68.5746 411.575 69 411.05 69H410.811C405.945 69 402 65.0554 402 60.1894Z" fill="black"/>
<path d="M213.9 100.372C213.253 100.486 212.636 100.053 212.523 99.4062C211.682 94.6135 214.885 90.0465 219.678 89.2056L219.914 89.1642C220.431 89.0735 220.923 89.419 221.014 89.9359L221.055 90.1715C221.896 94.9643 218.692 99.5312 213.9 100.372Z" fill="black"/>
<path d="M257.272 57.3722C256.682 57.4857 256.128 57.0973 256.033 56.5047L255.935 55.8921C255.215 51.3833 258.265 47.028 262.749 46.1642C263.22 46.0735 263.663 46.3838 263.738 46.8572L263.905 47.9014C264.607 52.291 261.637 56.5312 257.272 57.3722Z" fill="black"/>
<path d="M253.641 83.3722C253.052 83.4857 252.497 83.0973 252.403 82.5047L252.305 81.8921C251.584 77.3833 254.635 73.028 259.118 72.1642C259.589 72.0735 260.032 72.3838 260.108 72.8572L260.274 73.9014C260.976 78.291 258.006 82.5312 253.641 83.3722Z" fill="black"/>
<path d="M299.359 50.5833C298.77 50.6968 298.216 50.3085 298.121 49.7159L298.023 49.1033C297.303 44.5944 300.353 40.2391 304.837 39.3753C305.307 39.2847 305.75 39.5949 305.826 40.0683L305.993 41.1125C306.694 45.5022 303.724 49.7424 299.359 50.5833Z" fill="black"/>
<path d="M305.735 98.5833C305.146 98.6968 304.591 98.3085 304.496 97.7159L304.398 97.1033C303.678 92.5944 306.728 88.2391 311.212 87.3753C311.683 87.2847 312.126 87.5949 312.201 88.0683L312.368 89.1125C313.07 93.5022 310.1 97.7424 305.735 98.5833Z" fill="black"/>
<path d="M376.775 85.5833C376.186 85.6968 375.631 85.3085 375.536 84.7159L375.438 84.1033C374.718 79.5944 377.768 75.2391 382.252 74.3753C382.723 74.2847 383.166 74.5949 383.241 75.0683L383.408 76.1125C384.11 80.5022 381.14 84.7424 376.775 85.5833Z" fill="black"/>
<path d="M295.716 74.5833C295.127 74.6968 294.573 74.3085 294.478 73.7159L294.38 73.1033C293.659 68.5944 296.71 64.2391 301.194 63.3753C301.664 63.2847 302.107 63.5949 302.183 64.0683L302.35 65.1125C303.051 69.5022 300.081 73.7424 295.716 74.5833Z" fill="black"/>
<path d="M187.9 111.372C187.253 111.486 186.636 111.053 186.523 110.406C185.682 105.613 188.885 101.046 193.678 100.206L193.914 100.164C194.431 100.074 194.923 100.419 195.014 100.936L195.055 101.172C195.896 105.964 192.692 110.531 187.9 111.372Z" fill="black"/>
<path d="M425 101.189C425 100.533 425.533 100 426.189 100C431.055 100 435 103.945 435 108.811V109.05C435 109.575 434.575 110 434.05 110H433.811C428.945 110 425 106.055 425 101.189Z" fill="black"/>
<path d="M643.295 93.2727C643.295 109.277 640.218 122.842 634.062 133.969C627.907 145.096 619.574 153.547 609.062 159.324C598.598 165.1 586.856 167.989 573.835 167.989C560.767 167.989 549.001 165.077 538.537 159.253C528.073 153.429 519.763 144.977 513.608 133.898C507.5 122.771 504.446 109.229 504.446 93.2727C504.446 77.2689 507.5 63.7036 513.608 52.5767C519.763 41.4498 528.073 32.9981 538.537 27.2216C549.001 21.4451 560.767 18.5568 573.835 18.5568C586.856 18.5568 598.598 21.4451 609.062 27.2216C619.574 32.9981 627.907 41.4498 634.062 52.5767C640.218 63.7036 643.295 77.2689 643.295 93.2727ZM607.358 93.2727C607.358 83.803 606.009 75.8011 603.31 69.267C600.658 62.7329 596.823 57.785 591.804 54.4233C586.832 51.0615 580.843 49.3807 573.835 49.3807C566.875 49.3807 560.885 51.0615 555.866 54.4233C550.848 57.785 546.989 62.7329 544.29 69.267C541.638 75.8011 540.312 83.803 540.312 93.2727C540.312 102.742 541.638 110.744 544.29 117.278C546.989 123.812 550.848 128.76 555.866 132.122C560.885 135.484 566.875 137.165 573.835 137.165C580.843 137.165 586.832 135.484 591.804 132.122C596.823 128.76 600.658 123.812 603.31 117.278C606.009 110.744 607.358 102.742 607.358 93.2727ZM751.818 20.5455H786.903V114.366C786.903 125.209 784.323 134.655 779.162 142.705C774.001 150.706 766.804 156.909 757.571 161.312C748.338 165.669 737.614 167.847 725.398 167.847C713.04 167.847 702.244 165.669 693.011 161.312C683.778 156.909 676.605 150.706 671.491 142.705C666.378 134.655 663.821 125.209 663.821 114.366V20.5455H698.977V111.312C698.977 116.331 700.066 120.806 702.244 124.736C704.47 128.666 707.571 131.743 711.548 133.969C715.526 136.194 720.142 137.307 725.398 137.307C730.653 137.307 735.246 136.194 739.176 133.969C743.153 131.743 746.255 128.666 748.48 124.736C750.705 120.806 751.818 116.331 751.818 111.312V20.5455ZM887.56 64.1534C887.087 58.9451 884.98 54.8968 881.239 52.0085C877.546 49.0729 872.267 47.6051 865.401 47.6051C860.856 47.6051 857.068 48.197 854.038 49.3807C851.007 50.5644 848.735 52.1979 847.219 54.2812C845.704 56.3172 844.923 58.661 844.876 61.3125C844.781 63.4905 845.207 65.4081 846.154 67.0653C847.148 68.7225 848.569 70.1903 850.415 71.4688C852.309 72.6998 854.582 73.7888 857.234 74.7358C859.885 75.6828 862.868 76.5114 866.183 77.2216L878.683 80.0625C885.88 81.625 892.224 83.7083 897.717 86.3125C903.256 88.9167 907.897 92.018 911.637 95.6165C915.425 99.215 918.29 103.358 920.231 108.045C922.172 112.733 923.166 117.989 923.214 123.812C923.166 132.998 920.846 140.882 916.254 147.463C911.661 154.045 905.056 159.087 896.438 162.591C887.868 166.095 877.522 167.847 865.401 167.847C853.233 167.847 842.627 166.024 833.583 162.378C824.54 158.732 817.508 153.192 812.489 145.759C807.47 138.325 804.89 128.926 804.748 117.562H838.413C838.697 122.25 839.951 126.156 842.177 129.281C844.402 132.406 847.456 134.774 851.339 136.384C855.269 137.993 859.814 138.798 864.975 138.798C869.71 138.798 873.735 138.159 877.049 136.881C880.411 135.602 882.991 133.827 884.79 131.554C886.59 129.281 887.513 126.677 887.56 123.741C887.513 120.995 886.661 118.652 885.004 116.71C883.346 114.722 880.79 113.017 877.333 111.597C873.924 110.129 869.568 108.779 864.265 107.548L849.066 103.997C836.471 101.109 826.552 96.4451 819.308 90.0057C812.063 83.5189 808.465 74.7595 808.512 63.7273C808.465 54.7311 810.879 46.8475 815.756 40.0767C820.633 33.3059 827.38 28.0265 835.998 24.2386C844.615 20.4508 854.44 18.5568 865.472 18.5568C876.741 18.5568 886.519 20.4744 894.805 24.3097C903.138 28.0975 909.601 33.4242 914.194 40.2898C918.787 47.1553 921.13 55.1098 921.225 64.1534H887.56ZM1019.59 64.1534C1019.12 58.9451 1017.01 54.8968 1013.27 52.0085C1009.58 49.0729 1004.3 47.6051 997.433 47.6051C992.887 47.6051 989.099 48.197 986.069 49.3807C983.039 50.5644 980.766 52.1979 979.251 54.2812C977.736 56.3172 976.954 58.661 976.907 61.3125C976.812 63.4905 977.238 65.4081 978.185 67.0653C979.18 68.7225 980.6 70.1903 982.447 71.4688C984.341 72.6998 986.613 73.7888 989.265 74.7358C991.916 75.6828 994.899 76.5114 998.214 77.2216L1010.71 80.0625C1017.91 81.625 1024.26 83.7083 1029.75 86.3125C1035.29 88.9167 1039.93 92.018 1043.67 95.6165C1047.46 99.215 1050.32 103.358 1052.26 108.045C1054.2 112.733 1055.2 117.989 1055.25 123.812C1055.2 132.998 1052.88 140.882 1048.28 147.463C1043.69 154.045 1037.09 159.087 1028.47 162.591C1019.9 166.095 1009.55 167.847 997.433 167.847C985.264 167.847 974.658 166.024 965.614 162.378C956.571 158.732 949.54 153.192 944.521 145.759C939.502 138.325 936.921 128.926 936.779 117.562H970.444C970.728 122.25 971.983 126.156 974.208 129.281C976.433 132.406 979.487 134.774 983.37 136.384C987.3 137.993 991.845 138.798 997.006 138.798C1001.74 138.798 1005.77 138.159 1009.08 136.881C1012.44 135.602 1015.02 133.827 1016.82 131.554C1018.62 129.281 1019.54 126.677 1019.59 123.741C1019.54 120.995 1018.69 118.652 1017.03 116.71C1015.38 114.722 1012.82 113.017 1009.36 111.597C1005.96 110.129 1001.6 108.779 996.296 107.548L981.097 103.997C968.503 101.109 958.583 96.4451 951.339 90.0057C944.094 83.5189 940.496 74.7595 940.543 63.7273C940.496 54.7311 942.911 46.8475 947.788 40.0767C952.665 33.3059 959.412 28.0265 968.029 24.2386C976.647 20.4508 986.471 18.5568 997.504 18.5568C1008.77 18.5568 1018.55 20.4744 1026.84 24.3097C1035.17 28.0975 1041.63 33.4242 1046.23 40.2898C1050.82 47.1553 1053.16 55.1098 1053.26 64.1534H1019.59ZM1099.97 166H1062.19L1111.26 20.5455H1158.07L1207.14 166H1169.36L1135.2 57.1932H1134.06L1099.97 166ZM1094.93 108.756H1173.91V135.46H1094.93V108.756ZM1222.81 20.5455H1266.34L1303.27 110.602H1304.98L1341.91 20.5455H1385.45V166H1351.21V76.6534H1350.01L1315.06 165.077H1293.19L1258.25 76.1562H1257.04V166H1222.81V20.5455ZM1438.84 166H1401.05L1450.13 20.5455H1496.94L1546.01 166H1508.23L1474.07 57.1932H1472.93L1438.84 166ZM1433.8 108.756H1512.77V135.46H1433.8V108.756Z" fill="white"/>
<path d="M510.841 328V208.727H549.337C557.801 208.727 564.867 210.261 570.536 213.328C576.243 216.357 580.533 220.569 583.406 225.966C586.318 231.324 587.774 237.478 587.774 244.428C587.774 251.377 586.318 257.512 583.406 262.831C580.533 268.15 576.262 272.304 570.594 275.294C564.925 278.284 557.898 279.778 549.511 279.778H516.723V269.82H549.22C555.432 269.82 560.596 268.791 564.712 266.733C568.866 264.675 571.953 261.744 573.972 257.939C576.029 254.134 577.058 249.63 577.058 244.428C577.058 239.225 576.029 234.682 573.972 230.8C571.914 226.878 568.808 223.85 564.653 221.714C560.538 219.579 555.335 218.511 549.045 218.511H521.732V328H510.841ZM563.43 274.188L592.783 328H580.203L551.142 274.188H563.43ZM614.302 328V208.727H683.489V218.511H625.192V263.413H679.82V273.197H625.192V318.216H684.654V328H614.302ZM776.438 238.545C775.778 231.906 772.847 226.626 767.644 222.705C762.442 218.783 755.899 216.822 748.018 216.822C742.466 216.822 737.574 217.774 733.342 219.676C729.148 221.579 725.848 224.219 723.441 227.597C721.073 230.936 719.888 234.741 719.888 239.011C719.888 242.156 720.568 244.913 721.927 247.281C723.286 249.65 725.111 251.688 727.401 253.396C729.731 255.066 732.293 256.502 735.089 257.706C737.923 258.91 740.777 259.919 743.65 260.734L756.229 264.345C760.034 265.393 763.839 266.733 767.644 268.364C771.449 269.994 774.924 272.052 778.069 274.537C781.253 276.983 783.796 279.992 785.698 283.564C787.639 287.097 788.61 291.348 788.61 296.318C788.61 302.686 786.96 308.412 783.66 313.499C780.36 318.585 775.623 322.623 769.45 325.612C763.276 328.563 755.88 330.038 747.261 330.038C739.146 330.038 732.099 328.699 726.12 326.02C720.141 323.302 715.443 319.555 712.026 314.78C708.61 310.004 706.688 304.472 706.261 298.182H717.442C717.831 302.88 719.384 306.859 722.102 310.121C724.819 313.382 728.353 315.867 732.701 317.575C737.049 319.245 741.903 320.08 747.261 320.08C753.201 320.08 758.481 319.089 763.102 317.109C767.761 315.09 771.41 312.295 774.05 308.723C776.729 305.112 778.069 300.919 778.069 296.143C778.069 292.106 777.021 288.728 774.924 286.01C772.827 283.253 769.896 280.943 766.13 279.08C762.403 277.216 758.074 275.566 753.143 274.129L738.874 269.936C729.517 267.141 722.257 263.277 717.093 258.347C711.929 253.416 709.347 247.126 709.347 239.477C709.347 233.071 711.056 227.441 714.472 222.588C717.928 217.696 722.587 213.891 728.45 211.173C734.351 208.417 740.971 207.038 748.309 207.038C755.725 207.038 762.286 208.397 767.994 211.115C773.701 213.833 778.224 217.58 781.563 222.355C784.941 227.092 786.746 232.489 786.979 238.545H776.438ZM807.596 218.511V208.727H894.08V218.511H856.283V328H845.393V218.511H807.596ZM904.84 328H893.425L936.813 208.727H948.461L991.848 328H980.434L943.044 222.879H942.229L904.84 328ZM913.051 282.283H972.222V292.067H913.051V282.283ZM1091.79 208.727H1102.68V287.699C1102.68 295.813 1100.77 303.074 1096.97 309.48C1093.16 315.848 1087.86 320.875 1081.07 324.564C1074.31 328.214 1066.45 330.038 1057.48 330.038C1048.55 330.038 1040.69 328.194 1033.9 324.506C1027.1 320.817 1021.8 315.789 1018 309.422C1014.19 303.054 1012.29 295.813 1012.29 287.699V208.727H1023.18V286.942C1023.18 293.27 1024.6 298.92 1027.43 303.889C1030.27 308.82 1034.25 312.703 1039.37 315.537C1044.53 318.371 1050.57 319.788 1057.48 319.788C1064.39 319.788 1070.43 318.371 1075.6 315.537C1080.76 312.703 1084.74 308.82 1087.53 303.889C1090.37 298.92 1091.79 293.27 1091.79 286.942V208.727ZM1134.33 328V208.727H1172.82C1181.29 208.727 1188.36 210.261 1194.02 213.328C1199.73 216.357 1204.02 220.569 1206.89 225.966C1209.81 231.324 1211.26 237.478 1211.26 244.428C1211.26 251.377 1209.81 257.512 1206.89 262.831C1204.02 268.15 1199.75 272.304 1194.08 275.294C1188.41 278.284 1181.39 279.778 1173 279.778H1140.21V269.82H1172.71C1178.92 269.82 1184.08 268.791 1188.2 266.733C1192.35 264.675 1195.44 261.744 1197.46 257.939C1199.52 254.134 1200.55 249.63 1200.55 244.428C1200.55 239.225 1199.52 234.682 1197.46 230.8C1195.4 226.878 1192.3 223.85 1188.14 221.714C1184.03 219.579 1178.82 218.511 1172.53 218.511H1145.22V328H1134.33ZM1186.92 274.188L1216.27 328H1203.69L1174.63 274.188H1186.92ZM1237.96 328H1226.55L1269.94 208.727H1281.59L1324.97 328H1313.56L1276.17 222.879H1275.35L1237.96 328ZM1246.18 282.283H1305.35V292.067H1246.18V282.283ZM1438.31 208.727V328H1427.71L1357.24 228.121H1356.31V328H1345.42V208.727H1355.96L1426.66 308.723H1427.59V208.727H1438.31ZM1462.8 218.511V208.727H1549.28V218.511H1511.48V328H1500.59V218.511H1462.8Z" fill="#E4C590"/>
</g>
<defs>
<clipPath id="clip0_0_1">
<rect width="1550" height="348" fill="white"/>
</clipPath>
</defs>
</svg>
