<svg width="573" height="573" viewBox="0 0 573 573" fill="none" xmlns="http://www.w3.org/2000/svg">
<circle cx="286.5" cy="286.5" r="286.5" fill="#D9D9D9"/>
<circle cx="209" cy="281" r="139" stroke="#E4C590" stroke-width="30"/>
<circle cx="209.5" cy="280.5" r="117.5" fill="#E4C590" stroke="black" stroke-width="20"/>
<circle cx="170" cy="212" r="21" fill="black"/>
<circle cx="267" cy="338" r="21" fill="black"/>
<circle cx="194.096" cy="281.096" r="16" transform="rotate(-4.07301 194.096 281.096)" fill="black"/>
<circle cx="298" cy="264" r="16" fill="black"/>
<circle cx="126" cy="270" r="16" fill="black"/>
<circle cx="142" cy="333" r="21" fill="black"/>
<circle cx="216" cy="194" r="16" fill="black"/>
<circle cx="200" cy="354" r="21" fill="black"/>
<circle cx="244" cy="259" r="21" fill="black"/>
<circle cx="209" cy="281" r="164" stroke="black" stroke-width="20"/>
<path d="M490 272L500 262V227C500 166.249 450.751 117 390 117H294C233.249 117 184 166.249 184 227V262L194 272H490Z" fill="#E4C590" stroke="black" stroke-width="20" stroke-linejoin="bevel"/>
<path d="M194 367H184V377V423C184 434.046 192.954 443 204 443H480C491.046 443 500 434.046 500 423V377V367H490H194Z" fill="#E4C590" stroke="black" stroke-width="20"/>
<path d="M485 294H199C190.716 294 184 300.716 184 309C184 317.284 190.716 324 199 324H485C493.284 324 500 317.284 500 309C500 300.716 493.284 294 485 294Z" fill="#E4C590" stroke="black" stroke-width="20"/>
<path d="M481.5 258H202.5C192.283 258 184 266.283 184 276.5C184 286.717 192.283 295 202.5 295H481.5C491.717 295 500 286.717 500 276.5C500 266.283 491.717 258 481.5 258Z" fill="#E4C590" stroke="black" stroke-width="20"/>
<path d="M480 324H204C192.954 324 184 332.954 184 344V361C184 372.046 192.954 381 204 381H480C491.046 381 500 372.046 500 361V344C500 332.954 491.046 324 480 324Z" fill="#E4C590" stroke="black" stroke-width="20"/>
<path d="M248.9 175.372C248.253 175.486 247.636 175.053 247.523 174.406V174.406C246.682 169.613 249.885 165.046 254.678 164.206L254.914 164.164C255.431 164.074 255.923 164.419 256.014 164.936L256.055 165.172C256.896 169.964 253.692 174.531 248.9 175.372V175.372Z" fill="black"/>
<path d="M324 209.07C324 208.479 324.479 208 325.07 208V208C329.45 208 333 211.55 333 215.93V217.145C333 217.617 332.617 218 332.145 218V218C327.647 218 324 214.353 324 209.855V209.07Z" fill="black"/>
<path d="M428 211.07C428 210.479 428.479 210 429.07 210V210C433.45 210 437 213.55 437 217.93V219.145C437 219.617 436.617 220 436.145 220V220C431.647 220 428 216.353 428 211.855V211.07Z" fill="black"/>
<path d="M373 165.952C373 165.426 373.426 165 373.952 165V165C377.844 165 381 168.156 381 172.048V174.24C381 174.66 380.66 175 380.24 175V175C376.241 175 373 171.759 373 167.76V165.952Z" fill="black"/>
<path d="M396 153.07C396 152.479 396.479 152 397.07 152V152C401.45 152 405 155.55 405 159.93V161.145C405 161.617 404.617 162 404.145 162V162C399.647 162 396 158.353 396 153.855V153.07Z" fill="black"/>
<path d="M370 204.07C370 203.479 370.479 203 371.07 203V203C375.45 203 379 206.55 379 210.93V212.145C379 212.617 378.617 213 378.145 213V213C373.647 213 370 209.353 370 204.855V204.07Z" fill="black"/>
<path d="M270 151.189C270 150.533 270.533 150 271.189 150V150C276.055 150 280 153.945 280 158.811V159.05C280 159.575 279.575 160 279.05 160H278.811C273.945 160 270 156.055 270 151.189V151.189Z" fill="black"/>
<path d="M279 209.07C279 208.479 279.479 208 280.07 208V208C284.45 208 288 211.55 288 215.93V217.145C288 217.617 287.617 218 287.145 218V218C282.647 218 279 214.353 279 209.855V209.07Z" fill="black"/>
<path d="M437 167.189C437 166.533 437.533 166 438.189 166V166C443.055 166 447 169.945 447 174.811V175.05C447 175.575 446.575 176 446.05 176H445.811C440.945 176 437 172.055 437 167.189V167.189Z" fill="black"/>
<path d="M248.9 207.372C248.253 207.486 247.636 207.053 247.523 206.406V206.406C246.682 201.613 249.885 197.046 254.678 196.206L254.914 196.164C255.431 196.074 255.923 196.419 256.014 196.936L256.055 197.172C256.896 201.964 253.692 206.531 248.9 207.372V207.372Z" fill="black"/>
<path d="M292.272 164.372C291.682 164.486 291.128 164.097 291.033 163.505L290.935 162.892C290.215 158.383 293.265 154.028 297.749 153.164V153.164C298.22 153.074 298.663 153.384 298.738 153.857L298.905 154.901C299.607 159.291 296.637 163.531 292.272 164.372V164.372Z" fill="black"/>
<path d="M288.641 190.372C288.052 190.486 287.497 190.097 287.403 189.505L287.305 188.892C286.584 184.383 289.635 180.028 294.118 179.164V179.164C294.589 179.074 295.032 179.384 295.108 179.857L295.274 180.901C295.976 185.291 293.006 189.531 288.641 190.372V190.372Z" fill="black"/>
<path d="M334.359 157.583C333.77 157.697 333.216 157.308 333.121 156.716L333.023 156.103C332.303 151.594 335.353 147.239 339.837 146.375V146.375C340.307 146.285 340.75 146.595 340.826 147.068L340.993 148.113C341.694 152.502 338.724 156.742 334.359 157.583V157.583Z" fill="black"/>
<path d="M340.735 205.583C340.146 205.697 339.591 205.308 339.496 204.716L339.398 204.103C338.678 199.594 341.728 195.239 346.212 194.375V194.375C346.683 194.285 347.126 194.595 347.201 195.068L347.368 196.113C348.07 200.502 345.1 204.742 340.735 205.583V205.583Z" fill="black"/>
<path d="M411.775 192.583C411.186 192.697 410.631 192.308 410.536 191.716L410.438 191.103C409.718 186.594 412.768 182.239 417.252 181.375V181.375C417.723 181.285 418.166 181.595 418.241 182.068L418.408 183.113C419.11 187.502 416.14 191.742 411.775 192.583V192.583Z" fill="black"/>
<path d="M330.716 181.583C330.127 181.697 329.573 181.308 329.478 180.716L329.38 180.103C328.659 175.594 331.71 171.239 336.194 170.375V170.375C336.664 170.285 337.107 170.595 337.183 171.068L337.35 172.113C338.051 176.502 335.081 180.742 330.716 181.583V181.583Z" fill="black"/>
<path d="M222.9 218.372C222.253 218.486 221.636 218.053 221.523 217.406V217.406C220.682 212.613 223.885 208.046 228.678 207.206L228.914 207.164C229.431 207.074 229.923 207.419 230.014 207.936L230.055 208.172C230.896 212.964 227.692 217.531 222.9 218.372V218.372Z" fill="black"/>
<path d="M460 208.189C460 207.533 460.533 207 461.189 207V207C466.055 207 470 210.945 470 215.811V216.05C470 216.575 469.575 217 469.05 217H468.811C463.945 217 460 213.055 460 208.189V208.189Z" fill="black"/>
</svg>




